# xmcd
#
# Track frame offsets: 
#        183
#        13180
#        24170
#        36173
#        48013
#        58525
#        70078
#        83420
#        96010
#        109293
#        119930
#        130283
#        141773
#        153398
#        168168
#        178740
#        191693
#        201613
#
# Disc length: 2837 seconds
#
# Revision: 1
# Processed by: cddbd v1.5.2PL0 Copyright (c) Steve Scherf et al.
# Submitted via: ExactAudioCopyFreeDBPlugin 1.0
#
DISCID=f80b1312
DTITLE=Maxine Brown - Not My Baby
DYEAR=1991
DGENRE=Soul
TTITLE0=Something You Got (with Chuck Jackson)
TTITLE1=I Wonder What My Baby's Doing Tonight
TTITLE2=Oh No Not My Baby
TTITLE3=It's Gonna Be Alright
TTITLE4=Love is a Hurtin' Thing (with Chuck Jackson)
TTITLE5=I Cry Alone
TTITLE6=Ask Me
TTITLE7=Gotta Find a Way
TTITLE8=Since I Found You
TTITLE9=Daddy's Home (with Chuck Jackson)
TTITLE10=I Can't Get You Out of My Sight (with Chuck Jackson)
TTITLE11=Yesterday's Kisses
TTITLE12=You Upset My Soul
TTITLE13=Coming Back to You
TTITLE14=You Do Something to Me
TTITLE15=Don't Go (with Chuck Jackson)
TTITLE16=Little Girl Lost
TTITLE17=Let's Go Get Stoned (with Chuck Jackson)
EXTD=
EXTT0=
EXTT1=
EXTT2=
EXTT3=
EXTT4=
EXTT5=
EXTT6=
EXTT7=
EXTT8=
EXTT9=
EXTT10=
EXTT11=
EXTT12=
EXTT13=
EXTT14=
EXTT15=
EXTT16=
EXTT17=
PLAYORDER=
